<?xml version="1.0" standalone="no"?><!-- Generator: Gravit.io --><svg xmlns="http://www.w3.org/2000/svg" xmlns:xlink="http://www.w3.org/1999/xlink" style="isolation:isolate" viewBox="280.079 851.109 58.175 45.891" width="58.175" height="45.891"><path d=" M 288.419 881.3 C 288.419 881.67 288.119 881.97 287.749 881.97 C 287.379 881.97 287.079 881.67 287.079 881.3 C 287.26 877.483 290.398 874.477 294.219 874.46 L 297.339 874.46 C 301.177 874.431 304.339 877.464 304.469 881.3 C 304.501 881.557 304.381 881.809 304.163 881.948 C 303.944 882.086 303.665 882.086 303.446 881.948 C 303.227 881.809 303.108 881.557 303.139 881.3 C 303.005 878.203 300.439 875.77 297.339 875.8 L 294.219 875.8 C 291.169 875.83 288.681 878.252 288.569 881.3 L 288.419 881.3 Z  M 301.949 873.72 C 301.949 874.09 301.649 874.39 301.279 874.39 C 300.909 874.39 300.609 874.09 300.609 873.72 C 300.696 869.917 303.805 866.879 307.609 866.88 L 310.729 866.88 C 312.569 866.842 314.347 867.546 315.664 868.832 C 316.98 870.118 317.724 871.88 317.729 873.72 C 317.869 874.61 316.539 874.61 316.389 873.72 C 316.384 872.237 315.782 870.818 314.72 869.783 C 313.657 868.748 312.222 868.185 310.739 868.22 L 307.619 868.22 C 306.133 868.18 304.693 868.74 303.626 869.776 C 302.558 870.811 301.954 872.233 301.949 873.72 L 301.949 873.72 Z  M 301.799 889.33 C 301.799 889.7 301.499 890 301.129 890 C 300.759 890 300.459 889.7 300.459 889.33 C 300.546 885.527 303.655 882.489 307.459 882.49 L 310.579 882.49 C 314.384 882.489 317.492 885.527 317.579 889.33 C 317.579 889.7 317.279 890 316.909 890 C 316.539 890 316.239 889.7 316.239 889.33 C 316.174 886.261 313.658 883.813 310.589 883.83 L 307.469 883.83 C 304.392 883.802 301.865 886.254 301.799 889.33 L 301.799 889.33 Z  M 315.329 881.33 C 315.329 881.7 315.029 882 314.659 882 C 314.289 882 313.989 881.7 313.989 881.33 C 314.004 879.468 314.771 877.691 316.116 876.403 C 317.46 875.115 319.268 874.425 321.129 874.49 L 324.249 874.49 C 326.089 874.452 327.867 875.156 329.184 876.442 C 330.5 877.728 331.244 879.49 331.249 881.33 C 331.281 881.587 331.161 881.839 330.943 881.978 C 330.724 882.116 330.445 882.116 330.226 881.978 C 330.007 881.839 329.888 881.587 329.919 881.33 C 329.914 879.847 329.312 878.428 328.25 877.393 C 327.187 876.358 325.752 875.795 324.269 875.83 L 321.149 875.83 C 319.646 875.759 318.178 876.302 317.081 877.332 C 315.984 878.363 315.352 879.795 315.329 881.3 L 315.329 881.33 Z  M 295.849 865.72 C 298.178 865.785 300.026 867.701 300.009 870.03 C 299.962 872.309 298.128 874.147 295.849 874.2 C 294.744 874.2 293.685 873.76 292.904 872.978 C 292.124 872.196 291.686 871.135 291.689 870.03 C 291.646 868.897 292.064 867.796 292.848 866.978 C 293.633 866.159 294.716 865.695 295.849 865.69 L 295.849 865.72 Z  M 295.849 867.06 C 295.073 867.07 294.334 867.395 293.802 867.961 C 293.27 868.527 292.991 869.284 293.029 870.06 C 293.026 870.81 293.322 871.529 293.852 872.061 C 294.381 872.592 295.1 872.89 295.849 872.89 C 297.39 872.838 298.627 871.601 298.679 870.06 C 298.698 868.456 297.451 867.121 295.849 867.03 L 295.849 867.06 Z  M 309.229 858.14 C 310.356 858.148 311.433 858.609 312.216 859.42 C 312.998 860.231 313.421 861.323 313.389 862.45 C 313.341 864.727 311.507 866.562 309.229 866.61 C 306.9 866.627 304.984 864.778 304.919 862.45 C 304.886 861.294 305.328 860.176 306.143 859.355 C 306.958 858.535 308.073 858.085 309.229 858.11 L 309.229 858.14 Z  M 309.229 859.48 C 308.424 859.449 307.643 859.755 307.073 860.324 C 306.504 860.894 306.198 861.675 306.229 862.48 C 306.319 864.07 307.636 865.313 309.229 865.31 C 310.77 865.258 312.007 864.021 312.059 862.48 C 312.106 861.698 311.829 860.93 311.294 860.358 C 310.759 859.785 310.013 859.457 309.229 859.45 L 309.229 859.48 Z  M 308.929 873.9 C 311.26 873.883 313.179 875.73 313.249 878.06 C 313.242 879.189 312.779 880.267 311.966 881.05 C 311.152 881.833 310.058 882.255 308.929 882.22 C 307.825 882.223 306.765 881.785 305.985 881.005 C 305.204 880.224 304.767 879.164 304.769 878.06 C 304.801 875.771 306.64 873.918 308.929 873.87 L 308.929 873.9 Z  M 308.929 875.24 C 307.394 875.292 306.161 876.525 306.109 878.06 C 306.107 878.81 306.402 879.529 306.932 880.061 C 307.461 880.592 308.18 880.89 308.929 880.89 C 309.706 880.928 310.466 880.648 311.032 880.114 C 311.598 879.58 311.922 878.838 311.929 878.06 C 311.849 876.462 310.529 875.208 308.929 875.21 L 308.929 875.24 Z  M 322.609 865.72 C 324.989 865.72 326.919 867.65 326.919 870.03 C 326.854 872.36 324.94 874.212 322.609 874.2 C 320.299 874.161 318.415 872.338 318.299 870.03 C 318.336 867.66 320.24 865.743 322.609 865.69 L 322.609 865.72 Z  M 322.609 867.06 C 321.023 867.155 319.786 868.471 319.789 870.06 C 319.841 871.597 321.072 872.833 322.609 872.89 C 324.202 872.893 325.519 871.65 325.609 870.06 C 325.617 869.259 325.305 868.488 324.741 867.919 C 324.178 867.35 323.41 867.03 322.609 867.03 L 322.609 867.06 Z " fill="rgb(255,255,255)"/></svg>