<?xml version="1.0" standalone="no"?><!-- Generator: Gravit.io --><svg xmlns="http://www.w3.org/2000/svg" xmlns:xlink="http://www.w3.org/1999/xlink" style="isolation:isolate" viewBox="1038.891 843.673 42.107 40.029" width="42.107" height="40.029"><path d=" M 1052.616 863.367 L 1052.616 863.367 L 1052.616 863.367 Q 1049.593 863.367 1047.742 861.553 L 1047.742 861.553 L 1047.742 861.553 Q 1045.891 859.74 1045.891 857.058 L 1045.891 857.058 L 1045.891 857.058 Q 1045.891 854.338 1047.742 852.506 L 1047.742 852.506 L 1047.742 852.506 Q 1049.593 850.673 1052.616 850.673 L 1052.616 850.673 L 1052.616 850.673 Q 1055.676 850.673 1057.546 852.506 L 1057.546 852.506 L 1057.546 852.506 Q 1059.416 854.338 1059.416 857.058 L 1059.416 857.058 L 1059.416 857.058 Q 1059.416 859.74 1057.546 861.553 L 1057.546 861.553 L 1057.546 861.553 Q 1055.676 863.367 1052.616 863.367 Z  M 1069.88 851.051 L 1053.749 876.249 L 1050.084 876.249 L 1066.178 851.051 L 1069.88 851.051 Z  M 1072.128 874.889 L 1072.128 874.889 L 1072.128 874.889 Q 1070.258 876.702 1067.236 876.702 L 1067.236 876.702 L 1067.236 876.702 Q 1064.213 876.702 1062.362 874.889 L 1062.362 874.889 L 1062.362 874.889 Q 1060.511 873.076 1060.511 870.393 L 1060.511 870.393 L 1060.511 870.393 Q 1060.511 867.673 1062.362 865.841 L 1062.362 865.841 L 1062.362 865.841 Q 1064.213 864.009 1067.236 864.009 L 1067.236 864.009 L 1067.236 864.009 Q 1070.258 864.009 1072.128 865.841 L 1072.128 865.841 L 1072.128 865.841 Q 1073.998 867.673 1073.998 870.393 L 1073.998 870.393 L 1073.998 870.393 Q 1073.998 873.076 1072.128 874.889 Z  M 1052.616 859.362 L 1052.616 859.362 L 1052.616 859.362 Q 1053.598 859.362 1054.202 858.796 L 1054.202 858.796 L 1054.202 858.796 Q 1054.807 858.229 1054.807 857.058 L 1054.807 857.058 L 1054.807 857.058 Q 1054.807 855.849 1054.202 855.263 L 1054.202 855.263 L 1054.202 855.263 Q 1053.598 854.678 1052.616 854.678 L 1052.616 854.678 L 1052.616 854.678 Q 1051.671 854.678 1051.086 855.263 L 1051.086 855.263 L 1051.086 855.263 Q 1050.5 855.849 1050.5 857.058 L 1050.5 857.058 L 1050.5 857.058 Q 1050.5 858.229 1051.086 858.796 L 1051.086 858.796 L 1051.086 858.796 Q 1051.671 859.362 1052.616 859.362 Z  M 1067.236 872.698 L 1067.236 872.698 L 1067.236 872.698 Q 1069.427 872.698 1069.427 870.393 L 1069.427 870.393 L 1069.427 870.393 Q 1069.427 869.184 1068.822 868.599 L 1068.822 868.599 L 1068.822 868.599 Q 1068.218 868.013 1067.236 868.013 L 1067.236 868.013 L 1067.236 868.013 Q 1065.082 868.013 1065.082 870.393 L 1065.082 870.393 L 1065.082 870.393 Q 1065.082 872.698 1067.236 872.698 Z " fill="rgb(255,255,255)"/></svg>