<?xml version="1.0" standalone="no"?><!-- Generator: Gravit.io --><svg xmlns="http://www.w3.org/2000/svg" xmlns:xlink="http://www.w3.org/1999/xlink" style="isolation:isolate" viewBox="654.5 831.373 62 68.253" width="62" height="68.253"><g><path d=" M 698.782 864.273 C 696.44 861.904 693.505 860.209 690.283 859.365 C 689.552 861.335 687.673 862.643 685.571 862.643 C 683.47 862.643 681.59 861.335 680.859 859.365 C 677.638 860.211 674.703 861.906 672.36 864.273 C 671.805 866.845 671.823 869.507 672.413 872.071 L 672.658 872.071 C 675.39 872.053 677.622 874.247 677.651 876.979 L 677.651 877.117 C 677.633 878.185 677.259 879.217 676.589 880.049 C 678.96 882.729 682.055 884.666 685.502 885.627 C 688.963 884.703 692.084 882.799 694.49 880.145 C 693.875 879.367 693.522 878.415 693.48 877.425 C 693.475 877.347 693.475 877.269 693.48 877.191 C 693.51 874.454 695.747 872.255 698.484 872.273 L 698.675 872.273 C 699.011 870.881 699.179 869.455 699.175 868.023 C 699.177 866.763 699.045 865.506 698.782 864.273 L 698.782 864.273 Z  M 685.502 878.796 C 681.145 877.099 678.267 872.911 678.246 868.236 C 678.246 867.853 678.246 867.492 678.299 867.12 C 682.684 864.302 688.31 864.302 692.694 867.12 C 692.737 867.49 692.758 867.863 692.758 868.236 C 692.734 872.91 689.857 877.097 685.502 878.796 L 685.502 878.796 Z " fill="rgb(255,255,255)"/><path d=" M 702.5 877.245 L 702.5 877.351 C 702.425 879.521 700.634 881.236 698.463 881.218 C 697.118 881.186 695.875 880.495 695.138 879.369 C 694.726 878.769 694.487 878.067 694.447 877.34 L 694.447 877.245 C 694.47 875.056 696.242 873.289 698.431 873.271 L 698.495 873.271 C 700.692 873.277 702.477 875.047 702.5 877.245 Z " fill="rgb(255,255,255)"/><path d=" M 676.599 876.979 C 676.605 877.018 676.605 877.057 676.599 877.096 C 676.589 877.917 676.318 878.713 675.824 879.369 C 675.052 880.401 673.839 881.007 672.552 881.005 C 670.388 881.03 668.596 879.332 668.504 877.17 C 668.499 877.107 668.499 877.043 668.504 876.979 C 668.521 874.765 670.327 872.983 672.541 872.995 L 672.541 872.995 C 673.608 872.984 674.635 873.397 675.397 874.145 C 676.158 874.892 676.591 875.912 676.599 876.979 Z " fill="rgb(255,255,255)"/><path d=" M 692.025 853.277 L 692.025 856.996 L 685.64 859.429 L 679.255 856.996 L 679.255 853.277 L 685.64 855.71 L 692.025 853.277 L 692.025 853.277 Z " fill="rgb(255,255,255)"/><path d=" M 696.338 850.473 L 692.025 852.396 L 685.651 854.828 L 679.276 852.396 L 678.756 852.162 L 678.756 852.162 L 678.48 852.034 L 678.48 852.268 L 678.278 856.135 L 678.193 857.899 C 677.586 858.333 676.77 858.333 676.164 857.899 C 676.118 857.208 676.172 856.514 676.323 855.838 C 676.619 854.391 677.027 852.971 677.545 851.588 L 677.545 851.588 L 677.215 851.45 L 674.931 850.388 L 685.64 845.373 L 696.338 850.473 Z " fill="rgb(255,255,255)"/></g></svg>