<?xml version="1.0" standalone="no"?><!-- Generator: Gravit.io --><svg xmlns="http://www.w3.org/2000/svg" xmlns:xlink="http://www.w3.org/1999/xlink" style="isolation:isolate" viewBox="273.677 997.709 70.978 71.082" width="70.978" height="71.082"><g><path d=" M 330.069 1050.322 C 329.693 1049.96 329.186 1049.766 328.664 1049.786 L 327.643 1049.786 C 327.138 1049.774 326.649 1049.967 326.289 1050.322 C 325.92 1050.697 325.71 1051.2 325.702 1051.727 L 325.702 1052.748 C 325.7 1053.261 325.913 1053.752 326.289 1054.101 C 326.644 1054.47 327.131 1054.682 327.643 1054.689 L 328.664 1054.689 C 329.193 1054.692 329.7 1054.48 330.069 1054.101 C 330.445 1053.752 330.658 1053.261 330.656 1052.748 L 330.656 1051.727 C 330.648 1051.2 330.438 1050.697 330.069 1050.322 Z  M 300.601 1051.727 C 300.593 1051.2 300.383 1050.697 300.014 1050.322 C 299.638 1049.96 299.131 1049.766 298.609 1049.786 L 297.639 1049.786 C 297.117 1049.766 296.61 1049.96 296.235 1050.322 C 295.876 1050.704 295.667 1051.203 295.647 1051.727 L 295.647 1052.748 C 295.688 1053.822 296.564 1054.676 297.639 1054.689 L 298.609 1054.689 C 299.138 1054.692 299.645 1054.48 300.014 1054.101 C 300.39 1053.752 300.603 1053.261 300.601 1052.748 L 300.601 1051.727 Z  M 291.996 1042.355 C 291.646 1041.979 291.156 1041.766 290.642 1041.768 L 289.621 1041.768 C 289.092 1041.764 288.585 1041.976 288.216 1042.355 C 287.854 1042.71 287.659 1043.202 287.68 1043.709 L 287.68 1044.909 C 287.659 1045.416 287.854 1045.908 288.216 1046.262 C 288.592 1046.625 289.099 1046.819 289.621 1046.798 L 290.642 1046.798 C 291.149 1046.82 291.641 1046.625 291.996 1046.262 C 292.348 1045.901 292.541 1045.413 292.532 1044.909 L 292.532 1043.836 C 292.577 1043.288 292.381 1042.747 291.996 1042.355 Z  M 330.069 1027.647 C 329.696 1027.27 329.193 1027.051 328.664 1027.034 L 327.643 1027.034 C 327.134 1027.055 326.652 1027.264 326.289 1027.622 C 325.913 1027.971 325.7 1028.462 325.702 1028.975 L 325.702 1029.996 C 325.698 1030.525 325.91 1031.032 326.289 1031.401 C 326.649 1031.755 327.138 1031.949 327.643 1031.937 L 328.664 1031.937 C 329.186 1031.957 329.693 1031.763 330.069 1031.401 C 330.447 1031.032 330.659 1030.525 330.656 1029.996 L 330.656 1028.975 C 330.651 1028.47 330.438 1027.99 330.069 1027.647 Z  M 314.747 1012.326 C 314.355 1011.901 313.792 1011.676 313.215 1011.713 L 312.194 1011.713 C 311.687 1011.692 311.195 1011.887 310.841 1012.249 C 310.442 1012.604 310.226 1013.121 310.253 1013.654 L 310.253 1014.675 C 310.227 1015.193 310.444 1015.694 310.841 1016.029 C 311.175 1016.425 311.676 1016.642 312.194 1016.616 L 313.215 1016.616 C 313.748 1016.643 314.265 1016.427 314.62 1016.029 C 314.982 1015.674 315.177 1015.182 315.156 1014.675 L 315.156 1013.654 C 315.204 1013.147 315.048 1012.641 314.722 1012.249 L 314.747 1012.326 Z  M 292.021 1012.326 C 291.675 1011.928 291.17 1011.704 290.642 1011.713 L 289.621 1011.713 C 289.099 1011.693 288.592 1011.887 288.216 1012.249 C 287.854 1012.625 287.66 1013.132 287.68 1013.654 L 287.68 1014.675 C 287.659 1015.182 287.854 1015.674 288.216 1016.029 C 288.572 1016.427 289.088 1016.643 289.621 1016.616 L 290.642 1016.616 C 291.16 1016.642 291.661 1016.425 291.996 1016.029 C 292.348 1015.667 292.541 1015.18 292.532 1014.675 L 292.532 1013.654 C 292.541 1013.134 292.349 1012.631 291.996 1012.249 L 292.021 1012.326 Z " fill-rule="evenodd" fill="rgb(255,255,255)"/><path d=" M 300.448 1019.782 C 299.989 1019.322 299.361 1019.073 298.711 1019.093 L 297.435 1019.093 C 296.786 1019.076 296.159 1019.325 295.698 1019.782 C 295.245 1020.266 294.998 1020.907 295.009 1021.57 L 295.009 1022.795 C 295.016 1023.434 295.284 1024.043 295.749 1024.481 C 296.208 1024.95 296.83 1025.224 297.486 1025.247 L 298.762 1025.247 C 299.4 1025.211 300.002 1024.938 300.448 1024.481 C 300.908 1024.022 301.157 1023.394 301.137 1022.744 L 301.137 1021.57 C 301.148 1020.907 300.901 1020.266 300.448 1019.782 Z  M 307.776 1019.782 C 307.329 1019.305 306.693 1019.053 306.04 1019.093 L 304.865 1019.093 C 304.213 1019.053 303.576 1019.305 303.129 1019.782 C 302.657 1020.258 302.391 1020.9 302.388 1021.57 L 302.388 1022.795 C 302.402 1023.433 302.668 1024.04 303.129 1024.481 C 303.566 1024.98 304.202 1025.26 304.865 1025.247 L 306.091 1025.247 C 306.755 1025.26 307.39 1024.98 307.827 1024.481 C 308.301 1024.027 308.569 1023.4 308.568 1022.744 L 308.568 1021.57 C 308.565 1020.9 308.299 1020.258 307.827 1019.782 L 307.776 1019.782 Z  M 315.156 1019.782 C 314.697 1019.322 314.069 1019.073 313.42 1019.093 L 312.194 1019.093 C 311.545 1019.073 310.916 1019.322 310.458 1019.782 C 309.986 1020.258 309.72 1020.9 309.717 1021.57 L 309.717 1022.795 C 309.73 1023.433 309.997 1024.04 310.458 1024.481 C 310.916 1024.95 311.538 1025.224 312.194 1025.247 L 313.471 1025.247 C 314.126 1025.224 314.748 1024.95 315.207 1024.481 C 315.667 1024.022 315.917 1023.394 315.897 1022.744 L 315.897 1021.57 C 315.907 1020.907 315.66 1020.266 315.207 1019.782 L 315.156 1019.782 Z  M 322.485 1019.782 C 322.067 1019.339 321.484 1019.09 320.876 1019.093 L 319.65 1019.093 C 318.984 1019.061 318.335 1019.312 317.863 1019.782 C 317.41 1020.266 317.162 1020.907 317.173 1021.57 L 317.173 1022.795 C 317.176 1023.44 317.422 1024.061 317.863 1024.532 C 318.334 1025.013 318.977 1025.288 319.65 1025.298 L 320.876 1025.298 C 321.539 1025.311 322.175 1025.031 322.612 1024.532 C 323.086 1024.078 323.353 1023.451 323.353 1022.795 L 323.353 1021.57 C 323.33 1020.889 323.036 1020.245 322.536 1019.782 L 322.485 1019.782 Z  M 301.188 1028.898 C 301.188 1027.488 300.045 1026.345 298.635 1026.345 L 297.358 1026.345 C 296.706 1026.361 296.085 1026.626 295.622 1027.085 C 295.164 1027.546 294.915 1028.173 294.932 1028.822 L 294.932 1030.047 C 294.873 1030.719 295.105 1031.383 295.569 1031.871 C 296.033 1032.36 296.685 1032.625 297.358 1032.601 L 298.635 1032.601 C 299.31 1032.643 299.971 1032.392 300.448 1031.911 C 300.918 1031.439 301.169 1030.79 301.137 1030.124 L 301.188 1028.898 Z  M 323.276 1028.898 C 323.26 1028.246 322.995 1027.625 322.536 1027.162 C 322.111 1026.692 321.509 1026.423 320.876 1026.421 L 319.65 1026.421 C 318.98 1026.424 318.338 1026.69 317.863 1027.162 C 317.422 1027.633 317.176 1028.253 317.173 1028.898 L 317.173 1030.124 C 317.162 1030.787 317.41 1031.428 317.863 1031.911 C 318.335 1032.382 318.984 1032.632 319.65 1032.601 L 320.876 1032.601 C 321.528 1032.641 322.165 1032.388 322.612 1031.911 C 323.084 1031.436 323.35 1030.794 323.353 1030.124 L 323.276 1028.898 Z  M 300.448 1034.49 C 299.989 1034.03 299.361 1033.781 298.711 1033.801 L 297.435 1033.801 C 296.786 1033.784 296.159 1034.033 295.698 1034.49 C 295.238 1034.949 294.989 1035.578 295.009 1036.227 L 295.009 1037.504 C 294.989 1038.153 295.238 1038.781 295.698 1039.24 C 296.159 1039.697 296.786 1039.946 297.435 1039.929 L 298.711 1039.929 C 299.406 1039.993 300.093 1039.744 300.587 1039.251 C 301.08 1038.758 301.328 1038.071 301.265 1037.376 L 301.265 1036.227 C 301.252 1035.558 300.955 1034.927 300.448 1034.49 Z  M 322.485 1034.49 C 322.067 1034.048 321.484 1033.798 320.876 1033.801 L 319.65 1033.801 C 318.984 1033.77 318.335 1034.02 317.863 1034.49 C 317.422 1034.961 317.176 1035.582 317.173 1036.227 L 317.173 1037.504 C 317.176 1038.149 317.422 1038.769 317.863 1039.24 C 318.335 1039.711 318.984 1039.961 319.65 1039.929 L 320.876 1039.929 C 321.528 1039.97 322.165 1039.717 322.612 1039.24 C 323.086 1038.787 323.353 1038.159 323.353 1037.504 L 323.353 1036.227 C 323.334 1035.56 323.038 1034.93 322.536 1034.49 L 322.485 1034.49 Z  M 297.435 1041.13 C 296.783 1041.146 296.161 1041.411 295.698 1041.87 C 295.23 1042.323 294.979 1042.956 295.009 1043.606 L 295.009 1044.909 C 294.977 1045.575 295.228 1046.224 295.698 1046.696 C 296.169 1047.137 296.79 1047.383 297.435 1047.386 L 298.711 1047.386 C 299.367 1047.363 299.989 1047.089 300.448 1046.62 C 300.918 1046.147 301.169 1045.498 301.137 1044.832 L 301.137 1043.606 C 301.167 1042.956 300.916 1042.323 300.448 1041.87 C 299.994 1041.396 299.367 1041.129 298.711 1041.13 L 297.435 1041.13 Z  M 304.814 1041.13 C 303.404 1041.13 302.261 1042.273 302.261 1043.683 L 302.261 1044.909 C 302.264 1045.579 302.53 1046.221 303.001 1046.696 C 303.462 1047.154 304.089 1047.403 304.738 1047.386 L 305.963 1047.386 C 306.612 1047.403 307.239 1047.154 307.7 1046.696 C 308.172 1046.221 308.437 1045.579 308.44 1044.909 L 308.44 1043.683 C 308.45 1043.026 308.181 1042.395 307.7 1041.947 C 307.258 1041.457 306.623 1041.186 305.963 1041.206 L 304.814 1041.13 Z  M 315.028 1041.87 C 314.575 1041.396 313.948 1041.129 313.292 1041.13 L 312.194 1041.13 C 311.538 1041.129 310.911 1041.396 310.458 1041.87 C 309.976 1042.318 309.707 1042.949 309.717 1043.606 L 309.717 1044.909 C 309.72 1045.579 309.986 1046.221 310.458 1046.696 C 310.928 1047.137 311.549 1047.383 312.194 1047.386 L 313.471 1047.386 C 314.116 1047.383 314.736 1047.137 315.207 1046.696 C 315.678 1046.224 315.928 1045.575 315.897 1044.909 L 315.897 1043.683 C 315.949 1043.006 315.696 1042.341 315.207 1041.87 L 315.028 1041.87 Z  M 319.395 1041.13 C 318.725 1041.132 318.083 1041.398 317.607 1041.87 C 317.15 1042.33 316.901 1042.958 316.918 1043.606 L 316.918 1044.909 C 316.864 1045.601 317.115 1046.283 317.606 1046.774 C 318.097 1047.265 318.779 1047.517 319.471 1047.462 L 320.876 1047.462 C 321.525 1047.479 322.152 1047.23 322.612 1046.773 C 323.084 1046.297 323.35 1045.655 323.353 1044.985 L 323.353 1043.76 C 323.363 1043.102 323.094 1042.471 322.612 1042.023 C 322.17 1041.534 321.535 1041.263 320.876 1041.283 L 319.395 1041.13 Z  M 326.289 1012.249 C 325.91 1012.618 325.698 1013.125 325.702 1013.654 L 325.702 1014.675 C 325.7 1015.189 325.913 1015.679 326.289 1016.029 C 326.631 1016.416 327.127 1016.631 327.643 1016.616 L 328.664 1016.616 C 329.197 1016.643 329.713 1016.427 330.069 1016.029 C 330.445 1015.679 330.658 1015.189 330.656 1014.675 L 330.656 1013.654 C 330.659 1013.125 330.447 1012.618 330.069 1012.249 C 329.693 1011.887 329.186 1011.693 328.664 1011.713 L 327.643 1011.713 C 327.138 1011.701 326.649 1011.895 326.289 1012.249 Z  M 304.968 1011.713 C 304.446 1011.693 303.939 1011.887 303.563 1012.249 C 303.191 1012.621 302.988 1013.128 303.001 1013.654 L 303.001 1014.675 C 302.98 1015.182 303.175 1015.674 303.538 1016.029 C 303.893 1016.427 304.409 1016.643 304.942 1016.616 L 305.963 1016.616 C 306.481 1016.642 306.982 1016.425 307.317 1016.029 C 307.693 1015.679 307.906 1015.189 307.904 1014.675 L 307.904 1013.654 C 307.914 1013.129 307.712 1012.622 307.342 1012.249 C 306.988 1011.887 306.496 1011.692 305.989 1011.713 L 304.968 1011.713 Z  M 291.996 1027.647 C 291.644 1027.271 291.157 1027.051 290.642 1027.034 L 289.621 1027.034 C 289.095 1027.044 288.593 1027.254 288.216 1027.622 C 287.847 1027.982 287.651 1028.485 287.68 1029 L 287.68 1030.022 C 287.66 1030.543 287.854 1031.051 288.216 1031.426 C 288.592 1031.789 289.099 1031.983 289.621 1031.962 L 290.642 1031.962 C 291.149 1031.984 291.641 1031.789 291.996 1031.426 C 292.349 1031.045 292.541 1030.542 292.532 1030.022 L 292.532 1029 C 292.541 1028.496 292.348 1028.008 291.996 1027.647 Z  M 330.069 1034.976 C 329.693 1034.613 329.186 1034.419 328.664 1034.439 L 327.643 1034.439 C 327.138 1034.427 326.649 1034.621 326.289 1034.976 C 325.91 1035.344 325.698 1035.851 325.702 1036.38 L 325.702 1037.401 C 325.741 1038.457 326.588 1039.303 327.643 1039.342 L 328.664 1039.342 C 329.193 1039.346 329.7 1039.134 330.069 1038.755 C 330.437 1038.4 330.649 1037.913 330.656 1037.401 L 330.656 1036.38 C 330.659 1035.851 330.447 1035.344 330.069 1034.976 L 330.069 1034.976 Z  M 315.258 1052.85 L 315.258 1051.829 C 315.27 1051.309 315.077 1050.804 314.722 1050.424 C 314.346 1050.062 313.839 1049.868 313.317 1049.888 L 312.296 1049.888 C 311.789 1049.867 311.297 1050.062 310.943 1050.424 C 310.553 1050.786 310.339 1051.298 310.355 1051.829 L 310.355 1052.85 C 310.329 1053.368 310.546 1053.869 310.943 1054.204 C 311.292 1054.58 311.783 1054.793 312.296 1054.791 L 313.215 1054.791 C 313.744 1054.795 314.251 1054.582 314.62 1054.204 C 315.048 1053.845 315.285 1053.306 315.258 1052.748 L 315.258 1052.85 Z " fill-rule="evenodd" fill="rgb(255,255,255)"/></g></svg>