<?xml version="1.0" standalone="no"?><!-- Generator: Gravit.io --><svg xmlns="http://www.w3.org/2000/svg" xmlns:xlink="http://www.w3.org/1999/xlink" style="isolation:isolate" viewBox="719 2708 59 59" width="59" height="59"><g><g><path d=" M 770.179 2748.429 L 764.583 2756.469 L 760.634 2753.228 C 760.208 2752.876 759.577 2752.94 759.227 2753.366 C 758.876 2753.793 758.938 2754.424 759.366 2754.773 L 764.152 2758.702 C 764.332 2758.85 764.556 2758.93 764.786 2758.93 C 764.831 2758.93 764.877 2758.927 764.923 2758.92 C 765.199 2758.882 765.447 2758.73 765.607 2758.501 L 771.821 2749.572 C 772.136 2749.119 772.025 2748.496 771.571 2748.18 C 771.116 2747.861 770.494 2747.975 770.179 2748.429 Z " fill="rgb(132,19,23)"/><path d=" M 771 2742.479 L 771 2723 L 771 2713 C 771 2712.447 770.552 2712 770 2712 L 765 2712 L 765 2709 C 765 2708.447 764.552 2708 764 2708 L 757 2708 C 756.448 2708 756 2708.447 756 2709 L 756 2712 L 734 2712 L 734 2709 C 734 2708.447 733.552 2708 733 2708 L 726 2708 C 725.448 2708 725 2708.447 725 2709 L 725 2712 L 720 2712 C 719.448 2712 719 2712.447 719 2713 L 719 2723 L 719 2764 C 719 2764.553 719.448 2765 720 2765 L 758.104 2765 C 760.106 2766.26 762.466 2767 765 2767 C 772.168 2767 778 2761.168 778 2754 C 778 2748.997 775.154 2744.651 771 2742.479 Z  M 758 2710 L 763 2710 L 763 2713 L 763 2716 L 758 2716 L 758 2713 L 758 2710 Z  M 727 2710 L 732 2710 L 732 2713 L 732 2716 L 727 2716 L 727 2713 L 727 2710 Z  M 721 2714 L 725 2714 L 725 2717 C 725 2717.553 725.448 2718 726 2718 L 733 2718 C 733.552 2718 734 2717.553 734 2717 L 734 2714 L 756 2714 L 756 2717 C 756 2717.553 756.448 2718 757 2718 L 764 2718 C 764.552 2718 765 2717.553 765 2717 L 765 2714 L 769 2714 L 769 2722 L 721 2722 L 721 2714 Z  M 721 2763 L 721 2724 L 769 2724 L 769 2741.636 C 768.804 2741.573 768.604 2741.522 768.404 2741.467 C 768.219 2741.416 768.034 2741.366 767.847 2741.323 C 767.678 2741.285 767.507 2741.252 767.336 2741.221 C 767.092 2741.176 766.847 2741.139 766.601 2741.108 C 766.464 2741.091 766.328 2741.072 766.19 2741.059 C 765.796 2741.024 765.399 2741 765 2741 C 764.662 2741 764.331 2741.025 764 2741.051 L 764 2740 L 764 2738 L 764 2729 L 755 2729 L 753 2729 L 746 2729 L 744 2729 L 737 2729 L 735 2729 L 726 2729 L 726 2738 L 726 2740 L 726 2747 L 726 2749 L 726 2758 L 735 2758 L 737 2758 L 744 2758 L 746 2758 L 752.636 2758 C 752.665 2758.088 752.701 2758.173 752.731 2758.26 C 752.815 2758.503 752.898 2758.747 752.997 2758.984 C 753.052 2759.117 753.117 2759.244 753.177 2759.374 C 753.292 2759.628 753.409 2759.881 753.54 2760.127 C 753.598 2760.234 753.663 2760.337 753.724 2760.443 C 753.872 2760.702 754.022 2760.958 754.188 2761.206 C 754.249 2761.297 754.316 2761.383 754.379 2761.473 C 754.555 2761.723 754.735 2761.971 754.93 2762.209 C 755.002 2762.297 755.08 2762.379 755.154 2762.465 C 755.309 2762.645 755.457 2762.829 755.622 2763.001 L 721 2763.001 L 721 2763 Z  M 759.313 2742.328 C 759.205 2742.38 759.095 2742.429 758.989 2742.484 C 758.801 2742.582 758.619 2742.69 758.437 2742.797 C 758.278 2742.89 758.119 2742.985 757.964 2743.084 C 757.807 2743.186 757.654 2743.29 757.502 2743.398 C 757.329 2743.52 757.161 2743.648 756.994 2743.778 C 756.86 2743.883 756.726 2743.987 756.597 2744.098 C 756.422 2744.246 756.255 2744.403 756.088 2744.56 C 755.973 2744.669 755.854 2744.774 755.743 2744.886 C 755.562 2745.07 755.391 2745.265 755.221 2745.46 C 755.149 2745.543 755.07 2745.619 754.999 2745.704 L 754.999 2740 L 761.999 2740 L 761.999 2741.362 C 761.982 2741.366 761.966 2741.372 761.95 2741.376 C 761.029 2741.599 760.147 2741.92 759.313 2742.328 Z  M 752.57 2750.199 C 752.535 2750.314 752.512 2750.432 752.48 2750.548 C 752.4 2750.838 752.318 2751.128 752.258 2751.427 C 752.211 2751.658 752.185 2751.894 752.151 2752.128 C 752.124 2752.317 752.086 2752.503 752.066 2752.695 C 752.023 2753.126 752 2753.562 752 2754 C 752 2754.361 752.02 2754.726 752.053 2755.092 C 752.059 2755.159 752.059 2755.227 752.066 2755.294 C 752.082 2755.456 752.114 2755.613 752.136 2755.773 C 752.136 2755.773 752.136 2755.774 752.136 2755.774 C 752.147 2755.85 752.151 2755.925 752.163 2756 L 746 2756 L 746 2749 L 753 2749 L 753 2749.007 C 752.99 2749.031 752.984 2749.056 752.974 2749.08 C 752.824 2749.445 752.687 2749.818 752.57 2750.199 Z  M 728 2749 L 735 2749 L 735 2756 L 728 2756 L 728 2749 Z  M 728 2740 L 735 2740 L 735 2747 L 728 2747 L 728 2740 Z  M 762 2738 L 755 2738 L 755 2731 L 762 2731 L 762 2738 Z  M 753 2738 L 746 2738 L 746 2731 L 753 2731 L 753 2738 Z  M 753 2747 L 746 2747 L 746 2740 L 753 2740 L 753 2747 Z  M 737 2740 L 744 2740 L 744 2747 L 737 2747 L 737 2740 Z  M 744 2738 L 737 2738 L 737 2731 L 744 2731 L 744 2738 Z  M 735 2738 L 728 2738 L 728 2731 L 735 2731 L 735 2738 Z  M 737 2749 L 744 2749 L 744 2756 L 737 2756 L 737 2749 Z  M 765 2765 C 762.742 2765 760.641 2764.314 758.893 2763.142 C 758.552 2762.914 758.23 2762.666 757.921 2762.406 C 757.813 2762.314 757.711 2762.216 757.607 2762.12 C 757.41 2761.941 757.219 2761.757 757.037 2761.566 C 756.92 2761.443 756.807 2761.318 756.696 2761.191 C 756.532 2761.002 756.378 2760.807 756.228 2760.608 C 756.132 2760.481 756.033 2760.358 755.942 2760.227 C 755.721 2759.906 755.513 2759.576 755.327 2759.234 C 755.284 2759.154 755.25 2759.07 755.209 2758.989 C 755.063 2758.703 754.927 2758.413 754.806 2758.115 C 754.754 2757.985 754.709 2757.852 754.661 2757.72 C 754.567 2757.458 754.481 2757.192 754.406 2756.923 C 754.389 2756.861 754.374 2756.799 754.358 2756.737 C 754.245 2756.297 754.162 2755.86 754.103 2755.425 C 754.099 2755.394 754.093 2755.363 754.089 2755.331 C 754.031 2754.882 754 2754.437 754 2754 C 754 2753.621 754.019 2753.245 754.058 2752.872 C 754.061 2752.841 754.069 2752.811 754.072 2752.78 C 754.11 2752.439 754.16 2752.099 754.23 2751.764 C 754.237 2751.732 754.248 2751.701 754.255 2751.669 C 754.327 2751.337 754.412 2751.007 754.515 2750.681 C 754.527 2750.643 754.544 2750.606 754.556 2750.568 C 754.659 2750.256 754.773 2749.946 754.905 2749.642 C 755.029 2749.356 755.163 2749.075 755.31 2748.802 L 755.409 2748.631 C 755.449 2748.559 755.496 2748.491 755.538 2748.42 C 755.712 2748.127 755.898 2747.843 756.095 2747.569 C 756.144 2747.501 756.195 2747.434 756.246 2747.367 C 756.426 2747.129 756.616 2746.9 756.814 2746.679 C 756.883 2746.602 756.952 2746.524 757.023 2746.449 C 757.219 2746.241 757.425 2746.044 757.636 2745.853 C 757.711 2745.785 757.784 2745.715 757.861 2745.649 C 758.109 2745.437 758.366 2745.238 758.631 2745.049 C 758.673 2745.019 758.713 2744.986 758.755 2744.956 C 760.06 2744.054 761.559 2743.436 763.167 2743.166 L 763.188 2743.163 C 763.778 2743.064 764.381 2743 765 2743 C 765.389 2743 765.776 2743.021 766.16 2743.063 C 766.22 2743.069 766.278 2743.083 766.338 2743.09 C 766.666 2743.131 766.993 2743.18 767.316 2743.25 C 767.356 2743.259 767.394 2743.271 767.433 2743.28 C 767.777 2743.359 768.118 2743.451 768.455 2743.564 C 768.478 2743.572 768.5 2743.581 768.523 2743.589 C 768.868 2743.707 769.208 2743.842 769.545 2743.995 C 773.347 2745.729 776 2749.557 776 2754 C 776 2760.065 771.065 2765 765 2765 Z " fill="rgb(132,19,23)"/></g></g></svg>