<?xml version="1.0" standalone="no"?><!-- Generator: Gravit.io --><svg xmlns="http://www.w3.org/2000/svg" xmlns:xlink="http://www.w3.org/1999/xlink" style="isolation:isolate" viewBox="659 1006 48 45.852" width="48" height="45.852"><path d=" M 695.532 1022.969 C 693.903 1023.393 692.716 1024.794 692.565 1026.47 C 692.414 1028.147 693.332 1029.737 694.859 1030.445 L 694.859 1033.561 C 694.932 1037.738 691.851 1041.302 687.707 1041.835 C 685.602 1042.043 683.5 1041.407 681.864 1040.065 C 680.228 1038.724 679.192 1036.787 678.984 1034.682 C 678.984 1034.433 678.984 1034.159 678.984 1033.91 L 678.984 1032.713 C 684.177 1031.753 687.948 1027.228 687.956 1021.947 L 687.956 1016.963 C 687.95 1015.901 687.52 1014.886 686.762 1014.142 C 686.004 1013.398 684.981 1012.987 683.919 1013 L 681.427 1013 C 680.601 1013 679.931 1013.67 679.931 1014.496 C 679.931 1015.321 680.601 1015.991 681.427 1015.991 L 683.919 1015.991 C 684.183 1015.991 684.437 1016.096 684.624 1016.283 C 684.811 1016.47 684.916 1016.723 684.916 1016.988 L 684.916 1021.598 C 684.986 1025.784 681.892 1029.351 677.738 1029.872 C 673.363 1030.307 669.461 1027.119 669.016 1022.745 C 669.016 1022.471 669.016 1022.221 669.016 1021.947 L 669.016 1016.963 C 669.016 1016.412 669.462 1015.966 670.013 1015.966 L 672.505 1015.966 C 673.249 1015.863 673.802 1015.224 673.795 1014.472 C 673.789 1013.721 673.226 1013.091 672.48 1013 L 669.988 1013 C 667.785 1013 666 1014.786 666 1016.988 L 666 1021.972 C 665.965 1027.664 670.299 1032.432 675.969 1032.938 L 675.969 1033.436 C 675.879 1039.222 680.189 1044.135 685.937 1044.8 C 691.948 1045.379 697.296 1040.99 697.9 1034.981 C 697.9 1034.632 697.9 1034.258 697.9 1033.91 L 697.9 1030.62 C 699.58 1029.717 700.386 1027.749 699.821 1025.927 C 699.256 1024.105 697.479 1022.938 695.582 1023.143 L 695.532 1022.969 Z " fill="rgb(255,255,255)"/></svg>