<?xml version="1.0" standalone="no"?><!-- Generator: Gravit.io --><svg xmlns="http://www.w3.org/2000/svg" xmlns:xlink="http://www.w3.org/1999/xlink" style="isolation:isolate" viewBox="284.986 3177 100.907 84.27" width="100.907" height="84.27"><g><g><g><path d=" M 317.282 3215.191 C 314.797 3214.475 312.312 3214.112 309.894 3214.112 C 306.161 3214.112 303.046 3214.965 300.63 3216.01 C 302.959 3207.485 308.553 3192.775 319.697 3191.119 C 320.729 3190.965 321.574 3190.219 321.856 3189.215 L 324.292 3180.504 C 324.497 3179.767 324.375 3178.978 323.955 3178.339 C 323.535 3177.7 322.859 3177.273 322.103 3177.169 C 321.28 3177.057 320.442 3177 319.611 3177 C 306.235 3177 292.988 3190.961 287.398 3210.952 C 284.117 3222.679 283.155 3240.311 291.238 3251.41 C 295.76 3257.62 302.359 3260.936 310.85 3261.267 C 310.885 3261.268 310.919 3261.269 310.954 3261.269 C 321.43 3261.269 330.721 3254.213 333.547 3244.112 C 335.235 3238.074 334.472 3231.741 331.396 3226.276 C 328.353 3220.873 323.341 3216.934 317.282 3215.191 Z " fill="rgb(191,115,0)"/><path d=" M 382.864 3226.277 C 379.821 3220.873 374.809 3216.934 368.751 3215.191 C 366.265 3214.475 363.78 3214.112 361.363 3214.112 C 357.63 3214.112 354.514 3214.965 352.099 3216.01 C 354.427 3207.485 360.021 3192.775 371.166 3191.119 C 372.198 3190.965 373.043 3190.219 373.325 3189.215 L 375.761 3180.504 C 375.966 3179.767 375.844 3178.978 375.424 3178.339 C 375.005 3177.7 374.33 3177.273 373.572 3177.169 C 372.75 3177.057 371.912 3177 371.08 3177 C 357.704 3177 344.458 3190.961 338.867 3210.952 C 335.586 3222.679 334.624 3240.311 342.708 3251.412 C 347.23 3257.621 353.829 3260.938 362.319 3261.268 C 362.354 3261.269 362.388 3261.27 362.424 3261.27 C 372.9 3261.27 382.191 3254.214 385.017 3244.113 C 386.703 3238.075 385.939 3231.741 382.864 3226.277 Z " fill="rgb(191,115,0)"/></g></g></g></svg>