<?xml version="1.0" standalone="no"?><!-- Generator: Gravit.io --><svg xmlns="http://www.w3.org/2000/svg" xmlns:xlink="http://www.w3.org/1999/xlink" style="isolation:isolate" viewBox="982.607 3296.729 100.907 84.27" width="100.907" height="84.27"><g><g><g><path d=" M 1051.218 3342.809 C 1053.703 3343.524 1056.188 3343.887 1058.606 3343.887 C 1062.339 3343.887 1065.454 3343.034 1067.87 3341.989 C 1065.541 3350.514 1059.947 3365.224 1048.803 3366.88 C 1047.771 3367.034 1046.926 3367.78 1046.644 3368.785 L 1044.208 3377.496 C 1044.003 3378.233 1044.125 3379.021 1044.545 3379.66 C 1044.965 3380.3 1045.641 3380.726 1046.397 3380.83 C 1047.22 3380.942 1048.058 3380.999 1048.889 3380.999 C 1062.265 3380.999 1075.512 3367.038 1081.102 3347.048 C 1084.383 3335.32 1085.345 3317.688 1077.262 3306.59 C 1072.74 3300.38 1066.141 3297.064 1057.65 3296.732 C 1057.615 3296.731 1057.581 3296.73 1057.546 3296.73 C 1047.07 3296.73 1037.779 3303.786 1034.953 3313.887 C 1033.265 3319.926 1034.028 3326.258 1037.104 3331.723 C 1040.147 3337.127 1045.159 3341.065 1051.218 3342.809 Z " fill="rgb(191,115,0)"/><path d=" M 985.636 3331.722 C 988.679 3337.127 993.691 3341.065 999.749 3342.809 C 1002.235 3343.524 1004.72 3343.887 1007.137 3343.887 C 1010.87 3343.887 1013.986 3343.034 1016.401 3341.989 C 1014.073 3350.514 1008.479 3365.224 997.334 3366.88 C 996.302 3367.034 995.457 3367.78 995.175 3368.785 L 992.739 3377.496 C 992.534 3378.233 992.656 3379.021 993.076 3379.66 C 993.495 3380.3 994.17 3380.726 994.928 3380.83 C 995.75 3380.942 996.588 3380.999 997.42 3380.999 C 1010.796 3380.999 1024.042 3367.038 1029.633 3347.048 C 1032.914 3335.32 1033.876 3317.688 1025.792 3306.588 C 1021.27 3300.379 1014.671 3297.061 1006.181 3296.731 C 1006.146 3296.73 1006.112 3296.729 1006.076 3296.729 C 995.6 3296.729 986.309 3303.785 983.483 3313.886 C 981.797 3319.924 982.561 3326.258 985.636 3331.722 Z " fill="rgb(191,115,0)"/></g></g></g></svg>