<?xml version="1.0" standalone="no"?><!-- Generator: Gravit.io --><svg xmlns="http://www.w3.org/2000/svg" xmlns:xlink="http://www.w3.org/1999/xlink" style="isolation:isolate" viewBox="1034.833 997.035 62 61.931" width="62" height="61.931"><g><path d=" M 1076.973 1011.035 L 1076.973 1012.678 L 1076.231 1012.678 L 1076.231 1024.677 C 1075.856 1024.677 1075.461 1024.677 1075.058 1024.677 L 1075.058 1013.223 L 1056.731 1013.223 L 1056.731 1024.63 L 1056.139 1024.63 L 1055.548 1024.63 L 1055.548 1012.678 L 1054.684 1012.678 L 1054.684 1011.035 L 1076.973 1011.035 Z " fill="rgb(255,255,255)"/><path d=" M 1082.334 1027.785 C 1081.912 1027.381 1079.94 1027.297 1078.625 1027.278 L 1077.752 1027.278 C 1076.701 1027.278 1076.269 1028.386 1076.184 1028.808 C 1076.081 1029.371 1075.687 1030.789 1075.424 1031.719 L 1075.302 1031.559 L 1075.152 1031.399 C 1075.405 1030.461 1075.743 1029.249 1075.837 1028.752 C 1075.931 1028.254 1076.447 1026.949 1077.715 1026.949 L 1078.325 1026.949 C 1078.5 1026.393 1078.375 1025.786 1077.996 1025.344 C 1077.432 1025.086 1076.814 1024.966 1076.194 1024.996 C 1075.752 1024.996 1075.255 1024.996 1074.626 1024.996 L 1074.222 1024.996 C 1073.499 1024.996 1073.142 1025.7 1073.039 1026.076 C 1073.039 1026.076 1073.039 1026.16 1073.039 1026.189 C 1072.902 1026.78 1072.733 1027.363 1072.532 1027.935 L 1072.41 1027.775 L 1072.335 1027.635 C 1072.493 1027.116 1072.622 1026.59 1072.72 1026.057 C 1072.72 1026.057 1072.72 1026.057 1072.72 1026.001 C 1072.822 1025.528 1073.097 1025.11 1073.49 1024.827 C 1073.709 1024.672 1073.972 1024.59 1074.241 1024.593 L 1074.72 1024.593 C 1074.852 1024.126 1074.731 1023.624 1074.4 1023.269 C 1074.034 1022.912 1072.072 1022.724 1071.349 1022.724 C 1070.626 1022.724 1070.316 1023.456 1070.251 1023.785 C 1070.185 1024.114 1070.1 1024.461 1070.006 1024.818 L 1069.518 1024.818 C 1069.253 1024.716 1068.979 1024.634 1068.701 1024.574 L 1068.701 1022.949 C 1068.701 1022.161 1067.406 1021.513 1065.819 1021.513 C 1064.232 1021.513 1062.946 1022.161 1062.946 1022.949 L 1062.946 1024.611 L 1062.852 1024.611 C 1062.609 1024.664 1062.37 1024.736 1062.139 1024.827 L 1061.688 1024.827 C 1061.594 1024.47 1061.481 1024.067 1061.434 1023.794 C 1061.387 1023.522 1061.059 1022.734 1060.336 1022.734 C 1059.613 1022.734 1057.66 1022.921 1057.285 1023.278 C 1056.959 1023.636 1056.839 1024.135 1056.965 1024.602 L 1057.454 1024.602 C 1057.722 1024.599 1057.985 1024.681 1058.205 1024.837 C 1058.391 1024.967 1058.551 1025.133 1058.674 1025.325 C 1058.812 1025.535 1058.914 1025.767 1058.975 1026.01 C 1058.975 1026.01 1058.975 1026.01 1058.975 1026.076 C 1059.031 1026.395 1059.237 1027.062 1059.388 1027.559 L 1059.388 1027.559 L 1059.275 1027.719 L 1059.191 1027.935 C 1058.984 1027.268 1058.768 1026.555 1058.702 1026.179 L 1058.702 1026.057 C 1058.648 1025.881 1058.569 1025.714 1058.468 1025.56 C 1058.276 1025.216 1057.921 1024.996 1057.529 1024.977 L 1056.139 1024.977 L 1055.548 1024.977 C 1054.177 1025.062 1053.783 1025.231 1053.67 1025.325 C 1053.261 1025.779 1053.135 1026.421 1053.341 1026.996 L 1053.952 1026.996 C 1055.228 1026.996 1055.754 1028.292 1055.829 1028.799 L 1055.829 1028.958 L 1055.904 1029.259 Q 1055.904 1029.475 1056.017 1029.738 C 1056.022 1029.803 1056.022 1029.869 1056.017 1029.935 C 1056.017 1030.066 1056.092 1030.198 1056.13 1030.339 C 1056.156 1030.412 1056.178 1030.488 1056.195 1030.564 C 1056.252 1030.799 1056.318 1031.024 1056.374 1031.24 C 1056.394 1031.292 1056.409 1031.345 1056.421 1031.399 L 1056.374 1031.512 L 1056.271 1031.691 C 1056.026 1030.836 1055.632 1029.39 1055.529 1028.827 C 1055.435 1028.386 1055.003 1027.278 1053.952 1027.278 L 1053.078 1027.278 C 1050.262 1027.278 1049.558 1027.606 1049.37 1027.785 C 1048.79 1028.508 1048.67 1029.497 1049.06 1030.339 C 1049.511 1031.794 1050.741 1038.563 1050.741 1038.854 C 1050.741 1038.854 1051.238 1039.925 1054.496 1040.131 L 1054.496 1040.131 L 1054.853 1040.309 L 1054.853 1040.309 L 1055.172 1040.441 L 1055.266 1040.441 L 1055.266 1040.441 C 1055.751 1040.64 1056.246 1040.812 1056.749 1040.957 L 1056.881 1040.957 L 1056.881 1044.966 L 1074.72 1044.966 L 1074.72 1041.145 C 1074.757 1041.149 1074.795 1041.149 1074.832 1041.145 C 1075.236 1041.042 1075.63 1040.92 1076.025 1040.788 L 1076.1 1040.788 L 1076.785 1040.525 L 1077.198 1040.338 L 1077.198 1040.338 L 1077.574 1040.14 C 1080.391 1039.868 1080.841 1038.892 1080.851 1038.873 C 1080.851 1038.619 1082.09 1031.85 1082.541 1030.423 C 1082.996 1029.579 1082.915 1028.547 1082.334 1027.785 Z  M 1078.128 1036.807 L 1078.128 1036.807 L 1078.128 1036.807 C 1078.079 1036.946 1077.995 1037.069 1077.884 1037.164 L 1077.799 1037.239 C 1076.288 1038.563 1070.88 1039.662 1065.828 1039.662 C 1060.12 1039.662 1054.872 1038.066 1053.858 1036.901 C 1053.769 1036.817 1053.707 1036.71 1053.679 1036.592 L 1053.679 1036.498 C 1053.672 1036.483 1053.672 1036.466 1053.679 1036.451 L 1053.679 1036.451 L 1053.792 1036.385 L 1054.008 1036.103 L 1056.092 1033.334 L 1056.092 1033.334 L 1056.806 1032.395 L 1058.956 1029.578 L 1058.956 1029.578 L 1059.707 1028.639 L 1061.5 1026.301 C 1061.567 1026.212 1061.65 1026.136 1061.744 1026.076 C 1061.831 1025.999 1061.929 1025.935 1062.035 1025.888 L 1062.035 1025.888 C 1062.335 1025.74 1062.65 1025.627 1062.974 1025.55 C 1063.9 1025.356 1064.845 1025.268 1065.791 1025.287 C 1066.354 1025.287 1066.871 1025.287 1067.349 1025.353 C 1068.105 1025.396 1068.847 1025.577 1069.537 1025.888 L 1069.603 1025.888 C 1069.694 1025.933 1069.779 1025.99 1069.856 1026.057 C 1069.945 1026.117 1070.024 1026.19 1070.091 1026.273 L 1071.969 1028.667 L 1071.969 1028.667 L 1072.466 1029.325 L 1072.466 1029.325 L 1074.87 1032.47 L 1075.424 1033.183 L 1077.874 1036.385 L 1077.874 1036.385 L 1077.874 1036.385 L 1077.996 1036.516 C 1078.076 1036.593 1078.123 1036.697 1078.128 1036.807 Z " fill="rgb(255,255,255)"/><path d=" M 1070.955 1019.607 L 1070.316 1020.067 C 1069.247 1018.601 1067.53 1017.749 1065.716 1017.785 C 1063.902 1017.82 1062.22 1018.739 1061.209 1020.245 L 1060.561 1019.804 C 1061.719 1018.091 1063.639 1017.048 1065.707 1017.009 C 1067.775 1016.969 1069.732 1017.939 1070.955 1019.607 Z " fill="rgb(255,255,255)"/><path d=" M 1069.978 1020.255 L 1069.349 1020.724 C 1068.498 1019.593 1067.154 1018.94 1065.738 1018.97 C 1064.323 1018.999 1063.008 1019.708 1062.204 1020.875 L 1061.556 1020.424 C 1062.504 1019.039 1064.061 1018.198 1065.738 1018.164 C 1067.415 1018.131 1069.005 1018.909 1070.006 1020.255 L 1069.978 1020.255 Z " fill="rgb(255,255,255)"/><path d=" M 1068.992 1020.903 L 1068.382 1021.391 C 1067.772 1020.6 1066.828 1020.138 1065.828 1020.142 C 1064.788 1020.143 1063.81 1020.642 1063.2 1021.485 L 1062.57 1021.034 C 1063.323 1019.982 1064.535 1019.357 1065.828 1019.354 C 1067.067 1019.348 1068.237 1019.921 1068.992 1020.903 Z " fill="rgb(255,255,255)"/></g></svg>